<?xml version="1.0" encoding="UTF-8" standalone="no"?>
<svg
   id="svg"
   version="1.1"
   width="205.31827"
   height="205.31827"
   viewBox="0 0 205.31827 205.31827"
   sodipodi:docname="xsxad.svg"
   inkscape:version="1.1.2 (0a00cf5339, 2022-02-04)"
   xmlns:inkscape="http://www.inkscape.org/namespaces/inkscape"
   xmlns:sodipodi="http://sodipodi.sourceforge.net/DTD/sodipodi-0.dtd"
   xmlns="http://www.w3.org/2000/svg"
   xmlns:svg="http://www.w3.org/2000/svg">
  <defs
     id="defs7" />
  <sodipodi:namedview
     id="namedview5"
     pagecolor="#ffffff"
     bordercolor="#999999"
     borderopacity="1"
     inkscape:pageshadow="0"
     inkscape:pageopacity="0"
     inkscape:pagecheckerboard="0"
     showgrid="false"
     inkscape:zoom="1.3"
     inkscape:cx="134.23077"
     inkscape:cy="161.15385"
     inkscape:window-width="1366"
     inkscape:window-height="696"
     inkscape:window-x="0"
     inkscape:window-y="35"
     inkscape:window-maximized="1"
     inkscape:current-layer="svg" />
  <rect
     style="fill:#000000;stroke-width:189.881;stroke-linecap:round;stroke-linejoin:round;paint-order:stroke fill markers"
     id="rect1087"
     width="205.31827"
     height="205.31827"
     x="0"
     y="0"
     ry="40.357002" />
  <g
     id="svgg"
     transform="translate(-101.12197,-51.340304)"
     style="fill:#ffffff;fill-opacity:1">
    <path
       id="path0"
       d="m 144.727,78.069 c -8.387,2.431 -15.814,10.313 -17.582,18.661 -1.021,4.815 -0.846,108.756 0.189,112.803 1.988,7.772 7.081,13.139 15.527,16.364 l 2.256,0.861 47.071,0.111 c 41.888,0.098 47.38,0.042 49.885,-0.512 7.841,-1.732 13.939,-7.533 16.824,-16.005 l 1.064,-3.125 v -14.714 c 0,-8.092 -0.13,-14.844 -0.289,-15.003 -0.565,-0.565 -1.899,0.478 -6.707,5.246 l -4.869,4.827 -0.122,9.431 c -0.154,11.828 -0.763,13.407 -6.327,16.384 l -1.608,0.86 -45.679,0.104 c -39.618,0.09 -45.946,0.026 -47.69,-0.481 -2.605,-0.757 -5.483,-3.279 -6.683,-5.858 l -0.917,-1.968 V 152.539 99.023 l 0.941,-2.019 c 1.131,-2.43 3.513,-4.833 6.007,-6.062 l 1.834,-0.903 44.921,-0.116 c 52.034,-0.135 48.394,-0.374 52.212,3.439 2.4,2.398 3.453,4.852 3.453,8.053 0,2.594 0.476,2.418 5.172,-1.914 5.35,-4.934 5.563,-5.597 3.275,-10.214 -2.517,-5.077 -6.424,-8.603 -11.893,-10.732 l -2.609,-1.016 -47.656,-0.074 c -44.246,-0.07 -47.824,-0.026 -50,0.604 m 124.903,21.972 c -1.701,0.842 -64.656,63.75 -66.948,66.898 -0.675,0.927 -1.862,3.942 -3.076,7.813 -3.008,9.587 -3.79,11.761 -6.085,16.907 -2.198,4.931 -2.492,6.483 -1.566,8.263 1.555,2.989 4.329,3.851 8.045,2.499 9.668,-3.517 13.998,-4.918 19.011,-6.149 3.186,-0.782 6.321,-1.747 6.966,-2.143 2.388,-1.469 67.17,-67.272 68.082,-69.155 2.064,-4.265 1.056,-6.002 -9.421,-16.233 -10.053,-9.818 -11.296,-10.538 -15.008,-8.7 m 6.655,18.278 3.964,3.865 -30.035,30.33 c -16.52,16.682 -30.248,30.279 -30.507,30.217 -0.837,-0.201 -7.598,-6.891 -7.598,-7.517 0,-0.825 59.077,-60.761 59.889,-60.761 0.178,0 2.106,1.74 4.287,3.866 m -116.886,-1.98 c -4.056,2.175 -3.648,9.03 0.647,10.86 1.028,0.438 6.631,0.535 30.704,0.535 h 29.447 l 1.327,-0.882 c 3.756,-2.496 3.963,-7.954 0.391,-10.34 l -1.327,-0.887 h -29.929 c -28.24,0 -30.004,0.04 -31.26,0.714 m 0.414,28.527 c -3.97,2.148 -4.233,8.379 -0.46,10.9 l 1.345,0.898 16.624,-0.109 c 18.823,-0.124 17.918,0.031 19.595,-3.359 1.444,-2.919 0.628,-5.983 -2.145,-8.055 -1.594,-1.191 -32.813,-1.437 -34.959,-0.275"
       stroke="none"
       fill="#000000"
       fill-rule="evenodd"
       sodipodi:nodetypes="cccccccccssccccccccccccccccscccccccccccccccccccccssccssccccscccccscc"
       style="fill:#ffffff;fill-opacity:1" />
  </g>
</svg>
